<?xml version="1.0" encoding="utf-8"?>
<svg viewBox="0 0 500 500" xmlns="http://www.w3.org/2000/svg">
  <g clip-path="url(#9b46b84633)" transform="matrix(1.330261, 0, 0, 1.330261, -6.468966, -1.288414)" style="">
    <path fill="#000000" d="M 338.555 177.578 C 335.699 177.578 330.621 165.605 328.445 160.488 C 327.574 158.41 326.703 156.383 325.832 154.5 C 327.555 152.414 328.98 150.145 330.113 147.691 C 331.242 145.234 332.043 142.676 332.508 140.016 C 333.09 133.828 332.734 127.699 331.445 121.621 C 330.574 116.066 328.641 103.129 331.008 101.727 C 331.605 101.387 332.105 100.938 332.512 100.383 C 332.914 99.824 333.188 99.211 333.332 98.539 C 333.477 97.855 333.473 97.172 333.32 96.492 C 333.168 95.809 332.883 95.188 332.461 94.629 C 332.078 94.195 331.633 93.836 331.133 93.547 C 330.629 93.258 330.094 93.063 329.523 92.953 C 328.953 92.844 328.383 92.828 327.809 92.91 C 327.234 92.988 326.688 93.16 326.172 93.422 C 323.754 94.582 313.258 86.277 309.293 83.141 C 304.613 78.973 299.422 75.594 293.719 73 C 287.883 71.078 281.918 70.5 275.824 71.262 L 272.293 66.434 C 268.617 61.605 260.977 51.66 262.621 49.004 C 262.945 48.41 263.137 47.777 263.195 47.105 C 263.254 46.434 263.176 45.781 262.957 45.141 C 262.828 44.684 262.633 44.254 262.375 43.855 C 262.117 43.457 261.809 43.102 261.445 42.797 C 261.082 42.488 260.684 42.238 260.25 42.047 C 259.813 41.855 259.359 41.734 258.887 41.676 C 258.414 41.621 257.941 41.633 257.473 41.715 C 257.004 41.797 256.559 41.945 256.133 42.156 C 255.707 42.371 255.324 42.641 254.98 42.969 C 254.633 43.297 254.344 43.664 254.109 44.078 C 252.656 46.59 239.598 44.945 234.23 44.078 L 227.988 43.691 C 227.145 40.848 225.898 38.188 224.25 35.719 C 222.602 33.25 220.625 31.078 218.316 29.207 C 213.227 25.621 207.711 22.887 201.777 21 C 196.551 18.922 184.316 14.145 184.316 11.344 C 184.316 11.027 184.285 10.711 184.223 10.402 C 184.16 10.09 184.07 9.789 183.949 9.496 C 183.828 9.203 183.676 8.922 183.5 8.66 C 183.324 8.398 183.125 8.152 182.898 7.93 C 182.676 7.703 182.43 7.504 182.168 7.328 C 181.902 7.152 181.625 7.004 181.332 6.883 C 181.035 6.762 180.734 6.668 180.422 6.605 C 180.113 6.547 179.797 6.516 179.48 6.516 C 178.852 6.555 178.25 6.703 177.676 6.961 C 177.102 7.223 176.594 7.574 176.148 8.016 C 175.703 8.461 175.352 8.969 175.09 9.543 C 174.832 10.117 174.684 10.715 174.645 11.344 C 174.402 14 162.406 18.777 157.281 21 C 151.332 22.98 145.805 25.781 140.691 29.398 C 138.176 31.617 135.977 34.109 134.094 36.883 C 132.207 39.652 130.699 42.617 129.566 45.77 L 124.73 46.348 C 118.73 47.121 106.254 48.762 104.707 46.105 C 104.359 45.504 103.902 45.004 103.336 44.598 C 102.77 44.195 102.148 43.926 101.465 43.789 C 100.785 43.656 100.105 43.672 99.434 43.832 C 98.758 43.992 98.145 44.281 97.598 44.707 C 97.133 45.063 96.746 45.488 96.434 45.98 C 96.125 46.477 95.914 47.012 95.797 47.586 C 95.68 48.156 95.672 48.73 95.762 49.309 C 95.855 49.887 96.047 50.426 96.34 50.934 C 97.742 53.445 89.906 63.824 86.668 68.219 C 85.746 69.523 84.781 70.73 83.859 71.984 C 80.785 71.023 77.641 70.598 74.418 70.715 C 71.199 70.832 68.09 71.48 65.094 72.66 C 59.457 75.27 54.332 78.652 49.715 82.801 C 45.313 86.324 35.207 94.484 32.641 93.086 C 32.129 92.789 31.578 92.598 30.996 92.504 C 30.41 92.41 29.828 92.426 29.25 92.543 C 28.672 92.664 28.133 92.883 27.633 93.203 C 27.133 93.52 26.707 93.914 26.355 94.387 C 26.148 94.66 25.973 94.953 25.828 95.266 C 25.684 95.574 25.57 95.898 25.496 96.23 C 25.422 96.566 25.379 96.906 25.379 97.246 C 25.375 97.59 25.406 97.93 25.473 98.266 C 25.543 98.602 25.645 98.926 25.785 99.238 C 25.922 99.551 26.09 99.848 26.293 100.125 C 26.492 100.402 26.723 100.656 26.977 100.887 C 27.23 101.117 27.508 101.316 27.805 101.484 C 30.031 102.742 28.094 115.973 27.371 121.234 C 26.121 127.234 25.766 133.285 26.305 139.387 C 27.035 142.816 28.184 146.098 29.758 149.23 C 31.332 152.363 33.273 155.246 35.594 157.879 L 33.223 163.383 C 30.902 168.938 26.063 180.574 23.016 180.574 C 22.699 180.574 22.387 180.605 22.074 180.664 C 21.762 180.727 21.461 180.82 21.168 180.941 C 20.871 181.063 20.594 181.211 20.328 181.387 C 20.066 181.563 19.82 181.762 19.598 181.988 C 19.371 182.211 19.172 182.457 18.996 182.719 C 18.82 182.984 18.672 183.262 18.547 183.555 C 18.426 183.848 18.336 184.148 18.273 184.461 C 18.211 184.77 18.18 185.086 18.18 185.402 C 18.18 185.719 18.211 186.031 18.273 186.344 C 18.336 186.652 18.426 186.957 18.547 187.25 C 18.672 187.543 18.82 187.82 18.996 188.082 C 19.172 188.348 19.371 188.59 19.598 188.816 C 19.82 189.039 20.066 189.238 20.328 189.414 C 20.594 189.594 20.871 189.742 21.168 189.863 C 21.461 189.984 21.762 190.074 22.074 190.137 C 22.387 190.199 22.699 190.23 23.016 190.23 C 25.871 190.23 30.949 202.203 33.125 207.32 L 34.383 210.316 C 32.129 212.484 30.281 214.961 28.84 217.734 C 27.398 220.512 26.441 223.445 25.969 226.539 C 25.379 232.727 25.75 238.859 27.078 244.934 C 27.902 250.484 29.836 263.473 27.465 264.828 C 27.199 264.98 26.953 265.156 26.719 265.355 C 26.488 265.559 26.277 265.777 26.09 266.02 C 25.898 266.262 25.734 266.516 25.594 266.789 C 25.453 267.063 25.336 267.344 25.25 267.637 C 25.164 267.93 25.105 268.23 25.074 268.535 C 25.047 268.84 25.043 269.145 25.074 269.449 C 25.102 269.754 25.156 270.055 25.242 270.348 C 25.328 270.645 25.441 270.926 25.582 271.199 C 25.875 271.789 26.273 272.301 26.777 272.727 C 27.281 273.156 27.852 273.469 28.48 273.66 C 29.121 273.855 29.773 273.914 30.438 273.84 C 31.102 273.766 31.723 273.559 32.305 273.227 C 34.527 271.922 45.215 280.324 49.23 283.465 C 53.895 287.641 59.066 291.035 64.758 293.652 C 68.906 295.004 73.16 295.684 77.523 295.68 C 79.816 295.676 82.09 295.469 84.344 295.051 C 85.797 297.078 87.406 299.156 89.18 301.281 C 92.855 306.109 100.5 316.102 98.855 318.711 C 98.52 319.289 98.316 319.91 98.242 320.57 C 98.164 321.234 98.223 321.887 98.418 322.523 C 98.57 323.043 98.801 323.52 99.113 323.961 C 99.426 324.402 99.797 324.777 100.238 325.094 C 100.676 325.41 101.152 325.645 101.672 325.801 C 102.188 325.953 102.715 326.023 103.254 326 C 104.121 326.004 104.934 325.789 105.684 325.359 C 106.438 324.926 107.031 324.336 107.465 323.586 C 108.867 321.125 121.973 322.719 127.34 323.586 L 130.773 323.973 C 131.68 326.656 132.93 329.168 134.531 331.508 C 136.137 333.844 138.027 335.922 140.207 337.734 C 145.297 341.328 150.813 344.082 156.746 345.988 C 161.973 348.016 174.16 352.844 174.16 355.645 C 174.16 355.961 174.191 356.277 174.254 356.586 C 174.313 356.898 174.406 357.199 174.527 357.492 C 174.648 357.785 174.797 358.066 174.973 358.328 C 175.152 358.59 175.352 358.836 175.574 359.059 C 175.801 359.285 176.043 359.484 176.309 359.66 C 176.574 359.836 176.852 359.984 177.145 360.105 C 177.438 360.227 177.742 360.32 178.051 360.383 C 178.363 360.441 178.68 360.473 178.996 360.473 C 179.313 360.473 179.629 360.441 179.938 360.383 C 180.25 360.32 180.555 360.227 180.848 360.105 C 181.141 359.984 181.418 359.836 181.684 359.66 C 181.945 359.484 182.191 359.285 182.414 359.059 C 182.641 358.836 182.84 358.59 183.016 358.328 C 183.195 358.066 183.344 357.785 183.465 357.492 C 183.586 357.199 183.676 356.898 183.738 356.586 C 183.801 356.277 183.832 355.961 183.832 355.645 C 183.832 353.086 196.406 348.066 201.195 345.988 C 207.148 344.043 212.68 341.258 217.785 337.637 C 222.414 333.52 225.898 328.594 228.23 322.863 C 230.988 322.863 233.891 322.332 236.891 321.895 C 242.887 321.125 255.363 319.531 256.914 322.188 C 257.352 322.926 257.949 323.508 258.699 323.93 C 259.449 324.352 260.258 324.559 261.121 324.551 C 261.332 324.551 261.539 324.535 261.75 324.508 C 261.957 324.477 262.164 324.438 262.367 324.379 C 262.57 324.324 262.77 324.258 262.965 324.176 C 263.16 324.094 263.348 324 263.527 323.895 C 263.711 323.789 263.887 323.672 264.051 323.543 C 264.219 323.414 264.375 323.273 264.523 323.125 C 264.672 322.977 264.813 322.816 264.938 322.648 C 265.066 322.484 265.184 322.309 265.289 322.125 C 265.391 321.941 265.484 321.754 265.566 321.559 C 265.645 321.363 265.711 321.164 265.766 320.961 C 265.82 320.758 265.859 320.555 265.887 320.344 C 265.914 320.137 265.93 319.926 265.93 319.715 C 265.926 319.508 265.914 319.297 265.887 319.09 C 265.859 318.879 265.816 318.672 265.762 318.469 C 265.707 318.266 265.641 318.07 265.559 317.875 C 265.477 317.68 265.387 317.492 265.281 317.309 C 263.879 314.848 271.711 304.465 274.953 300.023 L 278.047 295.871 C 279.488 296.121 280.941 296.25 282.402 296.258 C 286.18 296.207 289.855 295.566 293.43 294.328 C 299.086 291.727 304.227 288.348 308.855 284.188 C 313.211 280.711 323.367 272.551 325.883 273.902 C 326.395 274.199 326.945 274.391 327.527 274.484 C 328.113 274.578 328.695 274.563 329.273 274.445 C 329.852 274.324 330.391 274.105 330.891 273.785 C 331.391 273.469 331.816 273.074 332.168 272.602 C 332.586 272.047 332.867 271.434 333.02 270.762 C 333.172 270.09 333.18 269.414 333.039 268.738 C 332.902 268.055 332.633 267.434 332.23 266.871 C 331.824 266.305 331.32 265.852 330.719 265.504 C 328.543 264.246 330.477 251.016 331.203 245.754 C 332.48 239.641 332.816 233.477 332.219 227.262 C 331.027 221.559 328.723 216.344 325.301 211.617 C 326.316 209.348 327.332 206.789 328.398 204.52 C 330.719 198.922 335.555 187.332 338.602 187.332 C 338.918 187.332 339.234 187.301 339.547 187.238 C 339.855 187.18 340.16 187.086 340.453 186.965 C 340.746 186.844 341.023 186.695 341.289 186.52 C 341.555 186.344 341.797 186.141 342.023 185.918 C 342.246 185.695 342.445 185.449 342.625 185.188 C 342.801 184.922 342.949 184.645 343.07 184.352 C 343.191 184.059 343.285 183.758 343.344 183.445 C 343.406 183.137 343.438 182.82 343.438 182.504 C 343.438 182.188 343.406 181.875 343.344 181.563 C 343.285 181.25 343.191 180.949 343.07 180.656 C 342.949 180.363 342.801 180.086 342.625 179.82 C 342.445 179.559 342.246 179.313 342.023 179.09 C 341.797 178.867 341.555 178.664 341.289 178.488 C 341.023 178.313 340.746 178.164 340.453 178.043 C 340.16 177.922 339.855 177.832 339.547 177.77 C 339.234 177.707 338.918 177.676 338.602 177.676 L 338.555 177.578 Z M 290.625 82.027 C 295.211 84.359 299.434 87.223 303.297 90.621 C 308.539 95.262 314.344 99.043 320.707 101.969 C 320.02 109.047 320.406 116.063 321.867 123.02 C 322.91 127.992 323.297 133.012 323.027 138.086 C 322.551 140.586 321.73 142.969 320.563 145.23 L 319.691 144.121 C 318.414 142.754 316.992 141.555 315.43 140.527 C 313.867 139.5 312.203 138.672 310.441 138.043 C 308.676 137.41 306.863 136.996 305.004 136.801 C 303.141 136.605 301.281 136.629 299.426 136.879 C 299.137 127.992 299.715 119.641 303.875 117.227 C 304.453 116.891 304.938 116.453 305.332 115.918 C 305.727 115.379 306 114.785 306.148 114.137 C 306.258 113.68 306.301 113.215 306.273 112.742 C 306.246 112.273 306.152 111.816 305.992 111.371 C 305.832 110.93 305.613 110.52 305.332 110.141 C 305.051 109.762 304.719 109.43 304.344 109.148 C 303.965 108.867 303.555 108.645 303.109 108.48 C 302.668 108.32 302.211 108.223 301.738 108.195 C 301.27 108.164 300.801 108.207 300.344 108.313 C 299.883 108.418 299.449 108.59 299.039 108.824 C 294.93 111.191 287.043 107.184 279.211 102.309 C 280.207 100.828 281.027 99.258 281.668 97.594 C 282.309 95.93 282.754 94.219 283.008 92.453 C 283.258 90.688 283.309 88.918 283.156 87.141 C 283.004 85.367 282.656 83.629 282.109 81.934 C 282.109 81.449 281.629 80.918 281.434 80.387 C 284.582 80.465 287.645 81.012 290.625 82.027 Z M 290.332 147.305 C 291.262 154.211 291.148 161.102 289.996 167.973 C 289.707 168.699 289.363 169.402 288.965 170.078 C 288.566 170.754 288.121 171.395 287.625 172 C 287.129 172.609 286.59 173.176 286.008 173.699 C 285.426 174.223 284.805 174.699 284.148 175.129 C 283.492 175.559 282.809 175.938 282.094 176.262 C 281.379 176.586 280.645 176.852 279.891 177.066 C 279.133 177.277 278.367 177.43 277.59 177.523 C 276.809 177.617 276.027 177.652 275.242 177.629 C 275.051 173.91 274.648 170.219 274.031 166.551 C 273.41 162.879 272.582 159.258 271.547 155.684 C 270.508 152.109 269.266 148.609 267.824 145.18 C 266.379 141.746 264.742 138.41 262.914 135.168 C 261.086 131.926 259.074 128.801 256.883 125.793 C 254.691 122.781 252.332 119.91 249.809 117.172 C 247.285 114.434 244.609 111.852 241.785 109.422 C 238.961 106.992 236.008 104.734 232.922 102.645 C 233.305 102.008 233.734 101.402 234.207 100.828 C 234.68 100.254 235.195 99.719 235.75 99.223 C 236.301 98.727 236.891 98.273 237.512 97.863 C 238.133 97.457 238.781 97.094 239.457 96.781 C 240.129 96.469 240.824 96.211 241.539 96 C 242.254 95.793 242.98 95.637 243.719 95.535 C 244.457 95.438 245.195 95.391 245.941 95.398 C 246.684 95.41 247.426 95.477 248.16 95.594 C 254.797 98.055 260.922 101.434 266.539 105.734 C 274.137 111.453 282.457 115.801 291.492 118.77 C 289.363 128.211 288.977 137.723 290.332 147.305 Z M 291.398 247.926 C 282.156 250.797 273.727 255.207 266.102 261.156 C 260.555 265.402 254.512 268.75 247.965 271.199 C 247.18 271.316 246.391 271.371 245.594 271.363 C 244.801 271.359 244.012 271.293 243.227 271.164 C 242.441 271.039 241.672 270.852 240.918 270.605 C 240.164 270.359 239.43 270.055 238.723 269.699 C 238.016 269.34 237.336 268.926 236.691 268.465 C 236.047 268 235.441 267.492 234.879 266.934 C 234.313 266.379 233.793 265.781 233.316 265.145 C 232.844 264.508 232.422 263.84 232.055 263.137 C 235.145 261.094 238.105 258.887 240.941 256.504 C 243.777 254.125 246.469 251.59 249.012 248.898 C 251.555 246.211 253.938 243.387 256.156 240.422 C 258.375 237.461 260.418 234.379 262.281 231.184 C 264.145 227.988 265.82 224.695 267.305 221.305 C 268.793 217.918 270.078 214.457 271.164 210.918 C 272.25 207.383 273.133 203.797 273.805 200.16 C 274.48 196.523 274.941 192.859 275.195 189.168 C 275.969 189.152 276.742 189.191 277.512 189.293 C 278.277 189.395 279.035 189.555 279.777 189.77 C 280.523 189.988 281.246 190.258 281.949 190.586 C 282.652 190.91 283.324 191.289 283.969 191.719 C 284.617 192.148 285.223 192.621 285.797 193.145 C 286.367 193.668 286.898 194.23 287.383 194.832 C 287.871 195.434 288.309 196.07 288.695 196.738 C 289.086 197.41 289.422 198.102 289.703 198.824 C 290.871 205.789 291.02 212.773 290.141 219.777 C 288.965 229.23 289.387 238.617 291.398 247.926 Z M 202.938 297.609 C 194.156 301.277 186.242 306.297 179.188 312.676 C 172.051 306.129 163.992 301.043 155.008 297.418 C 148.543 294.758 142.613 291.219 137.207 286.793 C 136.723 286.191 136.285 285.559 135.898 284.891 C 135.512 284.223 135.176 283.531 134.895 282.813 C 134.609 282.09 134.387 281.355 134.215 280.602 C 134.047 279.848 133.934 279.086 133.879 278.316 C 133.824 277.547 133.832 276.777 133.895 276.008 C 133.957 275.238 134.082 274.477 134.262 273.727 C 134.441 272.977 134.676 272.242 134.965 271.527 C 135.258 270.813 135.602 270.125 136 269.461 C 139.324 271.113 142.738 272.566 146.234 273.824 C 149.73 275.078 153.289 276.125 156.906 276.969 C 160.527 277.809 164.184 278.438 167.875 278.855 C 171.566 279.27 175.273 279.473 178.988 279.457 C 182.703 279.441 186.406 279.215 190.094 278.77 C 193.785 278.324 197.434 277.664 201.047 276.793 C 204.66 275.926 208.207 274.848 211.695 273.566 C 215.184 272.281 218.582 270.801 221.895 269.125 C 222.309 269.793 222.668 270.492 222.973 271.215 C 223.277 271.941 223.527 272.684 223.719 273.449 C 223.91 274.211 224.047 274.984 224.121 275.766 C 224.195 276.547 224.207 277.332 224.164 278.117 C 224.117 278.902 224.016 279.68 223.852 280.449 C 223.688 281.219 223.465 281.973 223.188 282.707 C 222.91 283.441 222.578 284.152 222.191 284.84 C 221.805 285.523 221.367 286.176 220.879 286.793 C 215.41 291.246 209.43 294.852 202.938 297.609 Z M 67.078 247.926 C 69.152 238.5 69.539 229.004 68.238 219.441 C 67.297 212.523 67.395 205.617 68.527 198.727 C 68.789 198.035 69.098 197.367 69.457 196.723 C 69.813 196.078 70.219 195.461 70.668 194.879 C 71.117 194.293 71.609 193.742 72.141 193.23 C 72.676 192.719 73.242 192.25 73.844 191.82 C 74.445 191.395 75.074 191.012 75.734 190.68 C 76.395 190.344 77.074 190.063 77.773 189.828 C 78.477 189.594 79.191 189.414 79.918 189.289 C 80.648 189.16 81.379 189.09 82.121 189.07 C 82.359 192.797 82.813 196.496 83.484 200.168 C 84.152 203.844 85.031 207.465 86.121 211.035 C 87.211 214.605 88.504 218.102 90 221.523 C 91.496 224.945 93.188 228.27 95.07 231.496 C 96.949 234.723 99.016 237.828 101.258 240.816 C 103.5 243.801 105.91 246.648 108.484 249.359 C 111.059 252.066 113.781 254.617 116.652 257.008 C 119.52 259.402 122.52 261.621 125.648 263.668 C 125.27 264.328 124.844 264.953 124.367 265.547 C 123.895 266.141 123.379 266.695 122.82 267.211 C 122.262 267.727 121.668 268.199 121.035 268.625 C 120.406 269.051 119.746 269.426 119.059 269.75 C 118.371 270.078 117.664 270.352 116.934 270.57 C 116.207 270.789 115.465 270.949 114.711 271.055 C 113.957 271.164 113.199 271.211 112.441 271.203 C 111.68 271.195 110.922 271.129 110.172 271.008 C 103.559 268.527 97.43 265.164 91.793 260.914 C 84.293 255.184 76.055 250.855 67.078 247.926 Z M 67.078 118.625 C 76.293 115.707 84.723 111.297 92.375 105.398 C 97.891 101.121 103.922 97.758 110.461 95.305 C 111.176 95.184 111.898 95.117 112.625 95.098 C 113.352 95.082 114.074 95.121 114.793 95.211 C 115.516 95.301 116.227 95.445 116.926 95.637 C 117.625 95.832 118.305 96.078 118.969 96.371 C 119.633 96.668 120.27 97.008 120.883 97.398 C 121.496 97.785 122.078 98.219 122.625 98.691 C 123.176 99.164 123.688 99.676 124.16 100.227 C 124.637 100.777 125.066 101.355 125.457 101.969 C 122.305 104.031 119.285 106.27 116.398 108.684 C 113.508 111.098 110.773 113.672 108.184 116.406 C 105.598 119.141 103.18 122.016 100.93 125.031 C 98.68 128.047 96.609 131.184 94.727 134.441 C 92.844 137.695 91.156 141.051 89.668 144.508 C 88.176 147.961 86.891 151.488 85.813 155.09 C 84.734 158.695 83.871 162.348 83.223 166.055 C 82.57 169.758 82.141 173.488 81.926 177.242 C 81.195 177.215 80.473 177.137 79.758 177 C 79.039 176.867 78.336 176.684 77.645 176.445 C 76.953 176.207 76.285 175.922 75.637 175.586 C 74.992 175.25 74.371 174.867 73.781 174.441 C 73.188 174.012 72.633 173.543 72.113 173.035 C 71.59 172.523 71.109 171.98 70.668 171.398 C 70.227 170.82 69.832 170.207 69.48 169.57 C 69.133 168.93 68.828 168.27 68.578 167.586 C 67.465 160.578 67.383 153.563 68.336 146.535 C 69.516 137.168 69.129 127.863 67.176 118.625 L 67.078 118.625 Z M 137.547 80 C 143.031 75.539 149.043 71.969 155.586 69.281 C 164.375 65.625 172.305 60.621 179.383 54.266 C 186.531 60.793 194.594 65.879 203.566 69.523 C 210.02 72.191 215.953 75.734 221.363 80.145 C 221.836 80.727 222.266 81.336 222.648 81.98 C 223.027 82.621 223.359 83.293 223.641 83.984 C 223.922 84.676 224.152 85.387 224.328 86.113 C 224.5 86.84 224.621 87.578 224.688 88.324 C 224.75 89.066 224.758 89.813 224.711 90.559 C 224.664 91.305 224.559 92.047 224.402 92.777 C 224.242 93.508 224.031 94.223 223.766 94.922 C 223.5 95.621 223.184 96.297 222.816 96.949 C 219.469 95.211 216.035 93.68 212.508 92.348 C 208.98 91.016 205.387 89.898 201.727 88.992 C 198.07 88.086 194.367 87.398 190.629 86.926 C 186.887 86.457 183.133 86.207 179.363 86.18 C 175.59 86.152 171.832 86.348 168.086 86.766 C 164.34 87.18 160.629 87.816 156.957 88.668 C 153.285 89.523 149.676 90.59 146.129 91.871 C 142.586 93.148 139.129 94.633 135.758 96.32 C 135.418 95.676 135.129 95.008 134.891 94.316 C 134.648 93.629 134.461 92.926 134.328 92.211 C 134.191 91.496 134.109 90.773 134.078 90.043 C 134.051 89.316 134.078 88.59 134.156 87.863 C 134.234 87.141 134.367 86.426 134.555 85.719 C 134.738 85.016 134.973 84.328 135.262 83.656 C 135.547 82.984 135.883 82.34 136.266 81.719 C 136.648 81.098 137.078 80.512 137.547 79.953 L 137.547 80 Z M 178.656 269.801 C 177.234 269.801 175.809 269.766 174.387 269.695 C 172.961 269.625 171.543 269.52 170.125 269.379 C 168.707 269.242 167.293 269.066 165.883 268.859 C 164.473 268.648 163.07 268.406 161.672 268.129 C 160.277 267.852 158.887 267.539 157.504 267.195 C 156.121 266.848 154.75 266.469 153.387 266.059 C 152.023 265.645 150.668 265.199 149.328 264.719 C 147.988 264.238 146.656 263.727 145.34 263.184 C 144.023 262.641 142.723 262.063 141.434 261.457 C 140.148 260.848 138.875 260.207 137.617 259.539 C 136.363 258.867 135.121 258.164 133.902 257.434 C 132.68 256.703 131.477 255.941 130.289 255.152 C 129.105 254.363 127.941 253.543 126.797 252.695 C 125.652 251.848 124.531 250.973 123.43 250.07 C 122.328 249.168 121.25 248.242 120.191 247.285 C 119.137 246.332 118.105 245.352 117.098 244.344 C 116.09 243.34 115.109 242.309 114.152 241.254 C 113.195 240.199 112.266 239.125 111.359 238.023 C 110.457 236.926 109.582 235.805 108.73 234.66 C 107.883 233.52 107.063 232.355 106.27 231.176 C 105.48 229.992 104.719 228.789 103.984 227.57 C 103.254 226.352 102.551 225.113 101.879 223.859 C 101.207 222.605 100.566 221.336 99.957 220.047 C 99.348 218.762 98.77 217.465 98.227 216.148 C 97.68 214.836 97.168 213.508 96.688 212.168 C 96.207 210.828 95.762 209.48 95.348 208.117 C 94.934 206.758 94.555 205.387 94.207 204.008 C 93.863 202.629 93.551 201.242 93.273 199.844 C 92.992 198.449 92.75 197.051 92.543 195.645 C 92.332 194.234 92.156 192.824 92.02 191.41 C 91.879 189.992 91.773 188.574 91.703 187.156 C 91.633 185.734 91.598 184.313 91.598 182.891 C 91.598 181.469 91.633 180.047 91.703 178.625 C 91.773 177.207 91.879 175.789 92.02 174.371 C 92.156 172.957 92.332 171.547 92.543 170.137 C 92.75 168.73 92.992 167.332 93.273 165.934 C 93.551 164.539 93.863 163.152 94.207 161.773 C 94.555 160.395 94.934 159.023 95.348 157.664 C 95.762 156.301 96.207 154.949 96.688 153.613 C 97.168 152.273 97.68 150.945 98.227 149.633 C 98.77 148.316 99.348 147.02 99.957 145.73 C 100.566 144.445 101.207 143.176 101.879 141.922 C 102.551 140.668 103.254 139.43 103.984 138.211 C 104.719 136.992 105.48 135.789 106.27 134.605 C 107.063 133.426 107.883 132.262 108.73 131.121 C 109.582 129.977 110.457 128.855 111.359 127.758 C 112.266 126.656 113.195 125.582 114.152 124.527 C 115.109 123.473 116.09 122.441 117.098 121.438 C 118.105 120.43 119.137 119.449 120.191 118.496 C 121.25 117.539 122.328 116.613 123.43 115.711 C 124.531 114.809 125.652 113.934 126.797 113.086 C 127.941 112.238 129.105 111.418 130.289 110.629 C 131.477 109.84 132.68 109.078 133.902 108.348 C 135.121 107.617 136.363 106.914 137.617 106.242 C 138.875 105.574 140.148 104.934 141.434 104.324 C 142.723 103.719 144.023 103.141 145.34 102.598 C 146.656 102.055 147.988 101.543 149.328 101.063 C 150.668 100.582 152.023 100.137 153.387 99.723 C 154.75 99.313 156.121 98.934 157.504 98.586 C 158.887 98.242 160.277 97.93 161.672 97.652 C 163.07 97.375 164.473 97.133 165.883 96.922 C 167.293 96.715 168.707 96.539 170.125 96.402 C 171.543 96.262 172.961 96.156 174.387 96.086 C 175.809 96.016 177.234 95.98 178.656 95.98 C 180.082 95.98 181.508 96.016 182.93 96.086 C 184.352 96.156 185.773 96.262 187.191 96.402 C 188.609 96.539 190.023 96.715 191.43 96.922 C 192.84 97.133 194.242 97.375 195.641 97.652 C 197.039 97.93 198.43 98.242 199.813 98.586 C 201.191 98.934 202.566 99.313 203.93 99.723 C 205.293 100.137 206.645 100.582 207.984 101.063 C 209.328 101.543 210.656 102.055 211.973 102.598 C 213.289 103.141 214.59 103.719 215.879 104.324 C 217.168 104.934 218.441 105.574 219.695 106.242 C 220.953 106.914 222.191 107.617 223.414 108.348 C 224.637 109.078 225.84 109.84 227.023 110.629 C 228.207 111.418 229.375 112.238 230.52 113.086 C 231.66 113.934 232.785 114.809 233.887 115.711 C 234.988 116.613 236.066 117.539 237.121 118.496 C 238.176 119.449 239.211 120.43 240.215 121.438 C 241.223 122.441 242.207 123.473 243.164 124.527 C 244.121 125.582 245.051 126.656 245.953 127.758 C 246.859 128.855 247.734 129.977 248.582 131.121 C 249.43 132.262 250.25 133.426 251.043 134.605 C 251.836 135.789 252.598 136.992 253.328 138.211 C 254.063 139.43 254.766 140.668 255.434 141.922 C 256.105 143.176 256.746 144.445 257.355 145.73 C 257.965 147.02 258.543 148.316 259.09 149.633 C 259.633 150.945 260.145 152.273 260.625 153.613 C 261.105 154.949 261.555 156.301 261.965 157.664 C 262.379 159.023 262.762 160.395 263.105 161.773 C 263.453 163.152 263.766 164.539 264.043 165.934 C 264.32 167.332 264.563 168.73 264.773 170.137 C 264.98 171.547 265.156 172.957 265.297 174.371 C 265.438 175.789 265.539 177.207 265.609 178.625 C 265.68 180.047 265.715 181.469 265.715 182.891 C 265.711 184.313 265.672 185.73 265.598 187.152 C 265.527 188.57 265.418 189.988 265.273 191.402 C 265.133 192.816 264.953 194.227 264.742 195.629 C 264.531 197.035 264.281 198.438 264.004 199.828 C 263.723 201.223 263.406 202.609 263.059 203.984 C 262.711 205.363 262.328 206.734 261.914 208.094 C 261.496 209.453 261.047 210.801 260.566 212.137 C 260.086 213.477 259.57 214.801 259.023 216.113 C 258.477 217.426 257.898 218.723 257.289 220.008 C 256.68 221.289 256.035 222.559 255.363 223.813 C 254.691 225.063 253.988 226.301 253.258 227.52 C 252.523 228.738 251.762 229.938 250.969 231.117 C 250.176 232.301 249.355 233.461 248.508 234.602 C 247.66 235.742 246.785 236.863 245.879 237.961 C 244.977 239.059 244.047 240.133 243.09 241.188 C 242.133 242.238 241.152 243.27 240.145 244.273 C 239.141 245.277 238.109 246.258 237.055 247.215 C 236 248.168 234.922 249.098 233.82 250 C 232.723 250.898 231.602 251.773 230.457 252.621 C 229.313 253.469 228.148 254.289 226.969 255.078 C 225.785 255.871 224.582 256.629 223.363 257.363 C 222.141 258.094 220.902 258.797 219.648 259.465 C 218.395 260.137 217.121 260.777 215.836 261.387 C 214.551 261.996 213.25 262.574 211.934 263.121 C 210.621 263.664 209.293 264.18 207.953 264.66 C 206.613 265.141 205.262 265.59 203.902 266.004 C 202.539 266.418 201.168 266.801 199.789 267.148 C 198.41 267.496 197.02 267.809 195.625 268.09 C 194.23 268.371 192.828 268.617 191.418 268.828 C 190.012 269.039 188.598 269.215 187.184 269.359 C 185.766 269.5 184.348 269.609 182.926 269.684 C 181.504 269.758 180.082 269.797 178.656 269.801 Z M 253.625 54.797 C 256.387 61.254 260.063 67.145 264.652 72.469 C 267.969 76.277 270.707 80.461 272.875 85.023 C 273.219 86.039 273.445 87.082 273.547 88.152 C 273.648 89.223 273.629 90.289 273.48 91.355 C 273.332 92.418 273.066 93.453 272.676 94.453 C 272.289 95.457 271.789 96.398 271.18 97.285 C 264.832 92.465 257.867 88.813 250.285 86.324 C 247.57 85.676 244.832 85.547 242.066 85.938 C 239.301 86.332 236.703 87.215 234.277 88.594 C 234.293 87.203 234.18 85.82 233.93 84.449 C 233.68 83.078 233.305 81.742 232.797 80.445 C 232.293 79.145 231.668 77.906 230.926 76.727 C 230.18 75.547 229.332 74.449 228.379 73.434 C 222.445 68.164 215.801 64.027 208.449 61.023 C 208.879 60.063 209.41 59.156 210.043 58.313 C 210.676 57.473 211.398 56.711 212.207 56.031 C 213.016 55.355 213.895 54.777 214.836 54.301 C 215.777 53.82 216.758 53.457 217.785 53.203 C 222.879 52.82 227.941 53.078 232.973 53.977 C 239.816 55.254 246.699 55.527 253.625 54.797 Z M 147.219 36.258 C 151.527 33.445 156.121 31.223 161.004 29.594 C 167.629 27.359 173.805 24.238 179.527 20.227 C 185.305 24.406 191.578 27.625 198.344 29.883 C 203.188 31.461 207.75 33.633 212.031 36.402 C 214.457 38.441 216.391 40.871 217.832 43.691 C 217.156 43.691 216.43 43.691 215.801 43.934 C 214.086 44.344 212.438 44.941 210.859 45.727 C 209.277 46.512 207.805 47.461 206.438 48.574 C 205.074 49.691 203.852 50.945 202.77 52.34 C 201.688 53.73 200.777 55.227 200.035 56.824 C 191.859 52.574 184.461 47.746 184.461 42.773 C 184.461 42.457 184.43 42.145 184.367 41.832 C 184.305 41.523 184.215 41.219 184.094 40.926 C 183.973 40.633 183.824 40.355 183.645 40.094 C 183.469 39.828 183.27 39.586 183.043 39.359 C 182.82 39.137 182.574 38.938 182.313 38.762 C 182.047 38.582 181.77 38.434 181.477 38.313 C 181.184 38.191 180.879 38.102 180.566 38.039 C 180.258 37.977 179.941 37.945 179.625 37.945 C 179.309 37.945 178.992 37.977 178.68 38.039 C 178.371 38.102 178.066 38.191 177.773 38.313 C 177.48 38.434 177.203 38.582 176.938 38.762 C 176.672 38.938 176.43 39.137 176.203 39.359 C 175.98 39.586 175.781 39.828 175.602 40.094 C 175.426 40.355 175.277 40.633 175.156 40.926 C 175.035 41.219 174.941 41.523 174.883 41.832 C 174.82 42.145 174.789 42.457 174.789 42.773 C 174.789 47.602 167.098 52.43 158.777 56.871 C 157.961 55.395 156.996 54.02 155.883 52.746 C 154.77 51.473 153.535 50.332 152.184 49.32 C 150.828 48.309 149.383 47.453 147.844 46.746 C 146.305 46.043 144.711 45.508 143.059 45.141 C 142.141 45.09 141.223 45.09 140.305 45.141 C 142.043 41.738 144.348 38.777 147.219 36.258 Z M 105.191 56.293 C 112.176 57.121 119.125 56.879 126.035 55.57 C 130.996 54.621 135.992 54.332 141.027 54.699 C 142.918 55.113 144.652 55.871 146.238 56.977 C 147.82 58.078 149.133 59.445 150.172 61.074 C 143.039 64.133 136.59 68.25 130.824 73.434 C 128.852 75.469 127.328 77.797 126.25 80.418 C 125.172 83.035 124.617 85.762 124.586 88.594 C 123.395 87.871 122.145 87.262 120.84 86.777 C 119.531 86.289 118.191 85.93 116.816 85.699 C 115.441 85.465 114.059 85.367 112.664 85.398 C 111.27 85.434 109.891 85.594 108.527 85.891 C 100.813 88.484 93.734 92.266 87.293 97.238 C 86.316 95.609 85.707 93.855 85.473 91.973 C 85.238 90.09 85.395 88.238 85.941 86.422 C 88.066 81.816 90.758 77.566 94.02 73.676 C 98.543 68.418 102.219 62.625 105.047 56.293 L 105.191 56.293 Z M 35.543 137.457 C 35.293 132.387 35.68 127.363 36.703 122.391 C 38.078 115.559 38.449 108.668 37.816 101.727 C 44.246 98.695 50.082 94.785 55.324 89.996 C 59.109 86.602 63.27 83.75 67.805 81.449 C 71.09 80.238 74.473 79.801 77.961 80.145 C 77.363 81.238 76.879 82.383 76.508 83.574 C 76.023 85.152 75.711 86.766 75.57 88.41 C 75.434 90.055 75.473 91.699 75.688 93.336 C 75.906 94.973 76.297 96.566 76.859 98.121 C 77.422 99.676 78.141 101.152 79.023 102.547 C 71.43 107.375 63.789 111.047 59.68 108.633 C 59.098 108.301 58.477 108.094 57.813 108.02 C 57.148 107.945 56.496 108.004 55.855 108.199 C 55.211 108.391 54.633 108.707 54.117 109.145 C 53.605 109.582 53.203 110.102 52.906 110.707 C 52.773 110.98 52.664 111.266 52.582 111.559 C 52.5 111.852 52.449 112.148 52.426 112.453 C 52.398 112.758 52.402 113.059 52.438 113.363 C 52.469 113.664 52.531 113.961 52.621 114.254 C 52.707 114.543 52.824 114.824 52.965 115.094 C 53.109 115.363 53.273 115.617 53.465 115.855 C 53.656 116.094 53.867 116.313 54.098 116.508 C 54.328 116.707 54.578 116.883 54.84 117.031 C 59.242 119.543 59.438 129.539 59 139.34 C 57.359 139.359 55.734 139.547 54.129 139.898 C 52.523 140.254 50.969 140.762 49.469 141.43 C 47.969 142.098 46.551 142.91 45.215 143.867 C 43.879 144.824 42.656 145.906 41.539 147.113 C 41.152 147.598 40.766 148.176 40.379 148.707 C 38.016 145.277 36.402 141.527 35.543 137.457 Z M 32.156 185.738 C 36.313 180.094 39.539 173.965 41.832 167.344 C 43.504 162.574 45.758 158.102 48.602 153.922 C 49.844 152.523 51.301 151.41 52.973 150.574 C 54.645 149.738 56.41 149.246 58.277 149.094 C 57.48 156.359 57.898 163.551 59.531 170.676 C 60.359 173.34 61.648 175.758 63.402 177.926 C 65.16 180.094 67.254 181.863 69.691 183.23 C 68.457 183.902 67.301 184.691 66.223 185.586 C 65.141 186.484 64.156 187.48 63.27 188.566 C 62.383 189.656 61.609 190.82 60.949 192.059 C 60.285 193.297 59.75 194.586 59.34 195.926 C 57.719 203.93 57.461 211.977 58.566 220.066 C 58.566 220.504 58.566 220.938 58.566 221.324 C 56.684 221.352 54.875 221.004 53.141 220.273 C 51.406 219.539 49.895 218.492 48.602 217.121 C 45.738 212.895 43.465 208.375 41.781 203.555 C 39.449 197.07 36.242 191.051 32.156 185.496 L 32.156 185.738 Z M 67.609 284.719 C 63.031 282.375 58.805 279.512 54.938 276.125 C 49.691 271.516 43.902 267.734 37.574 264.777 C 38.238 257.719 37.852 250.719 36.414 243.773 C 35.328 238.777 34.926 233.723 35.207 228.613 C 35.773 225.426 36.949 222.48 38.734 219.777 C 39.551 221.238 40.52 222.59 41.637 223.836 C 42.738 225.004 43.945 226.047 45.262 226.965 C 46.578 227.887 47.977 228.656 49.453 229.285 C 50.93 229.914 52.457 230.383 54.035 230.691 C 55.609 231 57.203 231.145 58.809 231.125 L 59.145 231.125 C 59.145 239.477 58.664 247.203 54.695 249.473 C 54.43 249.625 54.18 249.801 53.945 250 C 53.711 250.199 53.496 250.418 53.305 250.656 C 53.113 250.898 52.945 251.152 52.801 251.426 C 52.656 251.695 52.543 251.98 52.453 252.273 C 52.363 252.566 52.301 252.867 52.27 253.172 C 52.238 253.477 52.234 253.781 52.262 254.09 C 52.289 254.395 52.344 254.695 52.43 254.992 C 52.512 255.285 52.625 255.57 52.762 255.844 C 52.91 256.141 53.086 256.422 53.289 256.68 C 53.492 256.941 53.723 257.18 53.977 257.391 C 54.23 257.605 54.5 257.789 54.793 257.949 C 55.086 258.105 55.391 258.234 55.707 258.328 C 56.023 258.422 56.348 258.484 56.68 258.512 C 57.008 258.543 57.336 258.535 57.668 258.496 C 57.996 258.457 58.316 258.387 58.633 258.281 C 58.945 258.176 59.246 258.039 59.531 257.875 C 64.078 255.266 73.219 260.434 81.781 265.938 C 80.852 267.406 80.094 268.957 79.508 270.59 C 78.918 272.223 78.512 273.902 78.293 275.625 C 78.07 277.348 78.039 279.07 78.195 280.801 C 78.352 282.531 78.691 284.223 79.219 285.879 C 75.258 286.176 71.387 285.711 67.609 284.477 L 67.609 284.719 Z M 107.754 313.352 C 104.988 306.891 101.313 301 96.727 295.68 C 93.41 291.871 90.668 287.684 88.504 283.125 C 88.176 282.152 87.957 281.16 87.852 280.141 C 87.742 279.121 87.746 278.102 87.863 277.086 C 87.98 276.066 88.207 275.074 88.543 274.105 C 88.883 273.137 89.32 272.215 89.859 271.344 C 95.465 275.582 101.605 278.801 108.285 281 C 109.883 281.328 111.492 281.504 113.121 281.531 C 117.035 281.52 120.68 280.523 124.051 278.539 C 124.027 281.363 124.527 284.094 125.543 286.73 C 126.563 289.363 128.035 291.719 129.953 293.797 C 136.223 298.988 143.172 303.012 150.797 305.867 L 152.734 306.832 C 152.297 307.77 151.762 308.648 151.129 309.465 C 150.496 310.281 149.781 311.02 148.98 311.676 C 148.18 312.332 147.32 312.891 146.395 313.352 C 145.465 313.813 144.5 314.168 143.496 314.414 C 138.398 314.801 133.336 314.527 128.309 313.59 C 121.48 312.457 114.629 312.297 107.754 313.109 L 107.754 313.352 Z M 211.207 330.539 C 206.871 333.32 202.262 335.523 197.375 337.152 C 190.758 339.406 184.586 342.531 178.852 346.52 C 173.074 342.34 166.801 339.121 160.035 336.863 C 155.219 335.258 150.672 333.086 146.398 330.348 C 144.469 328.676 142.855 326.746 141.563 324.551 C 142.977 324.5 144.379 324.34 145.77 324.07 C 147.461 323.668 149.09 323.082 150.652 322.316 C 152.215 321.551 153.676 320.625 155.031 319.535 C 156.387 318.445 157.602 317.219 158.684 315.859 C 159.766 314.496 160.684 313.031 161.438 311.469 C 168.453 315.379 174.352 319.723 174.352 324.117 C 174.352 324.434 174.383 324.75 174.445 325.059 C 174.508 325.371 174.598 325.672 174.723 325.965 C 174.844 326.258 174.992 326.535 175.168 326.801 C 175.344 327.063 175.543 327.309 175.77 327.531 C 175.992 327.754 176.238 327.957 176.504 328.133 C 176.766 328.309 177.047 328.457 177.34 328.578 C 177.633 328.699 177.934 328.789 178.246 328.852 C 178.559 328.914 178.871 328.945 179.188 328.945 C 179.508 328.945 179.82 328.914 180.133 328.852 C 180.445 328.789 180.746 328.699 181.039 328.578 C 181.332 328.457 181.613 328.309 181.875 328.133 C 182.141 327.957 182.383 327.754 182.609 327.531 C 182.832 327.309 183.035 327.063 183.211 326.801 C 183.387 326.535 183.535 326.258 183.656 325.965 C 183.777 325.672 183.871 325.371 183.934 325.059 C 183.996 324.75 184.027 324.434 184.027 324.117 C 184.027 319 192.828 313.688 201.777 309.102 C 202.512 310.73 203.422 312.258 204.504 313.68 C 205.586 315.105 206.813 316.387 208.188 317.535 C 209.563 318.68 211.047 319.656 212.641 320.469 C 214.238 321.277 215.902 321.898 217.641 322.332 C 215.934 325.34 213.789 327.992 211.207 330.297 L 211.207 330.539 Z M 256.285 311.758 C 249.297 310.93 242.352 311.172 235.438 312.48 C 230.48 313.43 225.48 313.719 220.445 313.352 C 219.395 313.129 218.387 312.793 217.414 312.336 C 216.441 311.883 215.539 311.32 214.699 310.656 C 213.859 309.988 213.105 309.234 212.445 308.395 C 211.781 307.551 211.223 306.645 210.773 305.672 C 210.652 305.457 210.523 305.25 210.387 305.047 C 216.957 302.203 222.891 298.375 228.184 293.555 C 230.074 291.52 231.527 289.207 232.547 286.625 C 233.563 284.043 234.078 281.363 234.086 278.586 C 237.523 280.578 241.23 281.594 245.207 281.629 C 246.836 281.605 248.449 281.426 250.043 281.098 C 257.832 278.465 264.973 274.637 271.469 269.605 L 272.68 268.785 C 273.395 269.656 273.992 270.598 274.477 271.613 C 274.961 272.629 275.32 273.688 275.547 274.789 C 275.773 275.891 275.867 277.004 275.824 278.129 C 275.781 279.25 275.602 280.355 275.293 281.434 C 273.105 286.055 270.348 290.301 267.02 294.184 C 262.602 299.441 259.023 305.219 256.285 311.516 L 256.285 311.758 Z M 321.578 244.547 C 320.191 251.395 319.801 258.301 320.418 265.262 C 313.949 268.199 308.066 272.031 302.762 276.754 C 298.965 280.141 294.805 283.004 290.285 285.348 C 288.164 286.07 285.988 286.523 283.754 286.699 C 284.117 285.98 284.422 285.238 284.676 284.477 C 285.199 282.703 285.512 280.895 285.613 279.047 C 285.715 277.199 285.598 275.367 285.266 273.547 C 284.934 271.727 284.395 269.969 283.648 268.273 C 282.902 266.582 281.973 264.996 280.855 263.523 C 287.965 259.227 294.93 256.039 298.844 258.309 C 299.426 258.641 300.047 258.844 300.711 258.922 C 301.375 258.996 302.027 258.938 302.668 258.742 C 303.297 258.547 303.867 258.234 304.371 257.809 C 304.875 257.383 305.273 256.871 305.57 256.281 C 305.703 256.008 305.813 255.727 305.895 255.434 C 305.98 255.141 306.031 254.844 306.059 254.543 C 306.086 254.238 306.082 253.938 306.055 253.637 C 306.023 253.332 305.965 253.035 305.875 252.746 C 305.789 252.453 305.676 252.176 305.535 251.906 C 305.398 251.637 305.234 251.379 305.047 251.141 C 304.859 250.902 304.648 250.684 304.418 250.484 C 304.191 250.285 303.945 250.109 303.684 249.957 C 299.426 247.492 298.844 238.078 299.473 228.52 C 300.309 228.621 301.148 228.656 301.988 228.613 C 303.645 228.605 305.277 228.43 306.898 228.086 C 308.516 227.742 310.078 227.238 311.594 226.574 C 313.109 225.91 314.539 225.098 315.887 224.141 C 317.234 223.184 318.469 222.102 319.594 220.891 C 321.027 223.504 322.043 226.273 322.641 229.195 C 322.93 234.277 322.578 239.313 321.578 244.305 L 321.578 244.547 Z M 319.402 201.094 C 318.387 203.461 317.418 205.922 316.402 208.047 C 316.129 208.16 315.887 208.324 315.676 208.527 C 315.191 209.012 314.828 209.574 314.586 210.215 C 314.34 210.855 314.238 211.516 314.273 212.199 C 313.805 213.012 313.254 213.766 312.629 214.469 C 311.918 215.289 311.121 216.016 310.242 216.652 C 309.363 217.289 308.422 217.816 307.418 218.238 C 306.414 218.656 305.379 218.953 304.305 219.133 C 303.234 219.313 302.156 219.367 301.07 219.297 C 300.715 219.246 300.359 219.246 300.008 219.297 C 300.945 211.695 300.625 204.145 299.039 196.652 C 298.215 193.988 296.922 191.57 295.168 189.402 C 293.414 187.23 291.316 185.465 288.883 184.098 C 290.109 183.418 291.262 182.625 292.336 181.723 C 293.414 180.824 294.395 179.828 295.281 178.742 C 296.168 177.656 296.941 176.492 297.605 175.258 C 298.273 174.023 298.813 172.738 299.234 171.398 C 300.828 163.395 301.07 155.348 299.957 147.258 C 300.086 147.281 300.215 147.281 300.344 147.258 C 301.457 147.078 302.574 147.035 303.695 147.125 C 304.82 147.215 305.914 147.434 306.984 147.789 C 308.055 148.141 309.066 148.613 310.02 149.211 C 310.973 149.809 311.844 150.508 312.629 151.313 C 315.527 155.52 317.836 160.023 319.547 164.832 C 321.883 171.34 325.109 177.375 329.219 182.938 C 325.059 188.375 321.785 194.297 319.402 200.707 L 319.402 201.094 Z" fill-opacity="1" fill-rule="nonzero"/>
  </g>
</svg>
